<?xml version="1.0" encoding="utf-8"?>
<!-- Generator: Adobe Illustrator 27.6.1, SVG Export Plug-In . SVG Version: 6.00 Build 0)  -->
<svg version="1.1" id="レイヤー_1" xmlns="http://www.w3.org/2000/svg" xmlns:xlink="http://www.w3.org/1999/xlink" x="0px"
	 y="0px" viewBox="0 0 1920 1920" style="enable-background:new 0 0 1920 1920;" xml:space="preserve">
<style type="text/css">
	.st0{display:none;fill:#D1C9C1;}
	.st1{display:none;fill:#79A8B2;}
	.st2{display:none;fill:#969E93;}
	.st3{display:none;}
	.st4{display:inline;}
	.st5{fill:#A57665;}
	.st6{fill:#789176;}
	.st7{fill:#4A6849;}
	.st8{display:none;fill:#BCD1D3;}
	.st9{clip-path:url(#SVGID_00000016783747411732659290000017257974418182679683_);}
	.st10{fill:#A59191;}
	.st11{fill:#8D9187;}
	.st12{fill:#616858;}
</style>
<rect x="3.7" y="-97.5" class="st0" width="1915.9" height="1458.5"/>
<polyline class="st1" points="41.4,1052.9 591.7,502.6 1142,1052.9 "/>
<polyline class="st1" points="417.7,1115.4 1163.2,369.9 1908.7,1115.4 "/>
<rect x="-0.4" y="1051.9" class="st2" width="1920" height="3061.4"/>
<g class="st3">
	<g class="st4">
		<path class="st5" d="M109.4,1538.4l35.7,9.1c0,0,47,54.8,46.4,66.3c-0.6,11.6,10.1-88.4,7.1-96.1s24.8,0,24.8,0
			s7.9,88.7,6.7,102.9c-1.2,14.3,58.3-69.4,58.3-69.4l10.4,17c0,0-57.4,94.6-36,144.6s36,60.7,36,60.7l-46.6-5.7l-17.9,21.7
			l-34.7-21.7l-26.8,21.7l-21.2-31.9l-36.3,20.6c0,0,49.7-54.4,46.4-98.2C158.8,1640.9,140.3,1586.4,109.4,1538.4z"/>
		<circle class="st6" cx="109.2" cy="1342.1" r="153.6"/>
		<circle class="st6" cx="263.6" cy="1430.8" r="153.6"/>
		<circle class="st6" cx="15.6" cy="1514.6" r="153.6"/>
		<circle class="st6" cx="375.3" cy="1416" r="153.6"/>
		<circle class="st6" cx="294.8" cy="1514.6" r="153.6"/>
	</g>
	<g class="st4">
		<path class="st5" d="M2078.6,1595.9l35.7,9.1c0,0,47,54.8,46.4,66.3c-0.6,11.6,10.1-88.4,7.1-96.1s24.8,0,24.8,0
			s7.9,88.7,6.7,102.9c-1.2,14.3,58.3-69.4,58.3-69.4l10.4,17c0,0-57.4,94.6-36,144.6s36,60.7,36,60.7l-46.6-5.7l-17.9,21.7
			l-34.7-21.7L2142,1847l-21.2-31.9l-36.3,20.6c0,0,49.7-54.4,46.4-98.2C2128.1,1698.4,2109.5,1643.9,2078.6,1595.9z"/>
		
			<ellipse transform="matrix(0.7071 -0.7071 0.7071 0.7071 -380.8881 1879.6548)" class="st6" cx="2078.5" cy="1399.6" rx="153.6" ry="153.6"/>
		<circle class="st6" cx="2232.8" cy="1488.3" r="153.6"/>
		
			<ellipse transform="matrix(0.7071 -0.7071 0.7071 0.7071 -530.2374 1863.8937)" class="st6" cx="1984.8" cy="1572" rx="153.6" ry="153.6"/>
		<circle class="st6" cx="2344.5" cy="1473.5" r="153.6"/>
		<circle class="st6" cx="2264.1" cy="1572" r="153.6"/>
	</g>
	<g class="st4">
		<path class="st5" d="M1122.4,1567.8l25.5,6.5c0,0,33.5,39,33.1,47.3s7.2-63,5.1-68.5s17.7,0,17.7,0s5.6,63.2,4.8,73.4
			c-0.8,10.2,41.6-49.5,41.6-49.5l7.4,12.1c0,0-40.9,67.5-25.7,103.1c15.3,35.6,25.7,43.3,25.7,43.3l-33.3-4.1l-12.8,15.5
			l-24.7-15.5l-19.1,15.5l-15.1-22.8l-25.9,14.7c0,0,35.5-38.8,33.1-70C1157.7,1640.9,1144.4,1602,1122.4,1567.8z"/>
		<circle class="st6" cx="1122.3" cy="1427.8" r="109.5"/>
		<circle class="st6" cx="1232.4" cy="1491" r="109.5"/>
		<g>
			<path class="st5" d="M1767,1594.5l-28.2,7.2c0,0-37.1,43.2-36.6,52.4c0.5,9.2-8-69.8-5.6-75.9c2.3-6.1-19.6,0-19.6,0
				s-6.2,70-5.3,81.3c0.9,11.3-46-54.8-46-54.8l-8.2,13.4c0,0,45.3,74.7,28.4,114.2s-28.4,47.9-28.4,47.9l36.8-4.5l14.1,17.1
				l27.4-17.1l21.2,17.1l16.8-25.2l28.7,16.3c0,0-39.3-43-36.6-77.5C1728,1675.5,1742.6,1632.5,1767,1594.5z"/>
			<circle class="st6" cx="1767.2" cy="1439.6" r="121.3"/>
			<circle class="st6" cx="1598.6" cy="1560.2" r="121.3"/>
			<circle class="st6" cx="1841.1" cy="1575.7" r="121.3"/>
			<circle class="st6" cx="1533.7" cy="1484.9" r="121.3"/>
			<circle class="st6" cx="1710.1" cy="1439.6" r="121.3"/>
		</g>
		<circle class="st6" cx="1055.5" cy="1550.8" r="109.5"/>
		<circle class="st6" cx="1312" cy="1480.5" r="109.5"/>
		<circle class="st6" cx="1254.6" cy="1550.8" r="109.5"/>
	</g>
	<g class="st4">
		<path class="st5" d="M897,1563.5l-26.6,6.8c0,0-34.9,40.7-34.5,49.3c0.4,8.6-7.5-65.7-5.3-71.4c2.2-5.7-18.5,0-18.5,0
			s-5.9,65.9-5,76.5s-43.3-51.5-43.3-51.5l-7.7,12.6c0,0,42.7,70.3,26.8,107.5c-15.9,37.1-26.8,45.1-26.8,45.1l34.7-4.2l13.3,16.1
			l25.8-16.1l19.9,16.1l15.8-23.7l27,15.3c0,0-37-40.4-34.5-73C860.3,1639.7,874.1,1599.2,897,1563.5z"/>
		<circle class="st6" cx="897.2" cy="1417.6" r="114.1"/>
		<circle class="st6" cx="738.5" cy="1531.2" r="114.1"/>
		
			<ellipse transform="matrix(0.7071 -0.7071 0.7071 0.7071 -809.9058 1136.3145)" class="st6" cx="966.7" cy="1545.8" rx="114.1" ry="114.1"/>
		<circle class="st6" cx="677.5" cy="1460.4" r="114.1"/>
		<circle class="st6" cx="843.5" cy="1417.6" r="114.1"/>
	</g>
	<g class="st4">
		<path class="st5" d="M-229,1699.4l35.7,9.1c0,0,47,54.8,46.4,66.3c-0.6,11.6,10.1-88.4,7.1-96.1s24.8,0,24.8,0s7.9,88.7,6.7,102.9
			s58.3-69.4,58.3-69.4l10.4,17c0,0-57.4,94.6-36,144.6s36,60.7,36,60.7l-46.6-5.7l-17.9,21.7l-34.7-21.7l-26.8,21.7l-21.2-31.9
			l-36.3,20.6c0,0,49.7-54.4,46.4-98.2C-179.5,1801.9-198.1,1747.4-229,1699.4z"/>
		<circle class="st7" cx="-305.1" cy="1641.6" r="171.3"/>
		<circle class="st7" cx="-146.9" cy="1469.8" r="171.3"/>
		<circle class="st7" cx="59.8" cy="1579.5" r="171.3"/>
		<circle class="st7" cx="-27.6" cy="1666.8" r="171.3"/>
	</g>
	<g class="st4">
		<path class="st5" d="M957.1,1626.5l23.7,6c0,0,31.1,36.3,30.7,44s6.7-58.5,4.7-63.7c-2-5.1,16.5,0,16.5,0s5.2,58.7,4.4,68.2
			c-0.8,9.5,38.6-45.9,38.6-45.9l6.9,11.3c0,0-38,62.7-23.8,95.8c14.2,33.1,23.8,40.2,23.8,40.2l-30.9-3.8l-11.9,14.4l-23-14.4
			L999,1793l-14.1-21.1l-24,13.7c0,0,32.9-36,30.7-65C989.9,1694.4,977.6,1658.3,957.1,1626.5z"/>
		<circle class="st7" cx="906.7" cy="1588.2" r="113.5"/>
		<circle class="st7" cx="1011.5" cy="1474.4" r="113.5"/>
		<circle class="st7" cx="1148.4" cy="1547.1" r="113.5"/>
		<circle class="st7" cx="1090.6" cy="1604.9" r="113.5"/>
	</g>
	<g class="st4">
		<path class="st5" d="M588.9,1663.7l-30.1,7.7c0,0-39.5,46.1-39,55.8c0.5,9.8-8.5-74.3-6-80.8s-20.9,0-20.9,0s-6.6,74.6-5.6,86.6
			s-49.1-58.4-49.1-58.4l-8.8,14.3c0,0,48.3,79.6,30.3,121.6s-30.3,51.1-30.3,51.1l39.2-4.8l15.1,18.3l29.2-18.3l22.5,18.3
			l17.9-26.8l30.5,17.3c0,0-41.8-45.8-39-82.6C547.3,1749.9,562.9,1704.1,588.9,1663.7z"/>
		<circle class="st7" cx="664" cy="1615.1" r="144.1"/>
		<circle class="st7" cx="519.9" cy="1470.6" r="144.1"/>
		<circle class="st7" cx="404" cy="1549" r="144.1"/>
		<circle class="st7" cx="354.3" cy="1643" r="144.1"/>
		<circle class="st7" cx="498.2" cy="1639.1" r="144.1"/>
	</g>
	<g class="st4">
		<path class="st5" d="M1471.1,1658.8l-25.4,6.5c0,0-33.4,38.9-33,47.1s-7.2-62.8-5.1-68.3s-17.6,0-17.6,0s-5.6,63-4.8,73.1
			c0.8,10.1-41.4-49.3-41.4-49.3l-7.4,12.1c0,0,40.8,67.2,25.6,102.7s-25.6,43.1-25.6,43.1l33.1-4l12.7,15.4l24.6-15.4l19,15.4
			l15.1-22.7l25.8,14.6c0,0-35.3-38.6-33-69.7C1436,1731.6,1449.1,1692.9,1471.1,1658.8z"/>
		<circle class="st7" cx="1534.4" cy="1617.8" r="121.6"/>
		<circle class="st7" cx="1412.8" cy="1495.8" r="121.6"/>
		<circle class="st7" cx="1315" cy="1562" r="121.6"/>
		<circle class="st7" cx="1273" cy="1641.3" r="121.6"/>
		<circle class="st7" cx="1394.5" cy="1638" r="121.6"/>
	</g>
</g>
<g>
	<g>
		<path class="st5" d="M-433.1,1305l59,15c0,0,77.6,90.4,76.6,109.6s16.7-145.9,11.8-158.7c-4.9-12.8,41,0,41,0s13,146.4,11.1,170
			c-2,23.6,96.3-114.5,96.3-114.5l17.2,28.1c0,0-94.8,156.2-59.4,238.7s59.4,100.3,59.4,100.3l-77-9.4l-29.6,35.9l-57.3-35.9
			l-44.2,35.9l-35-52.7l-59.9,34c0,0,82.1-89.8,76.6-162.1C-351.5,1474.3-382.1,1384.3-433.1,1305z"/>
		<circle class="st6" cx="-433.4" cy="980.9" r="253.6"/>
		<circle class="st6" cx="-178.4" cy="1127.3" r="253.6"/>
		<circle class="st6" cx="-587.9" cy="1265.7" r="253.6"/>
		<circle class="st6" cx="6" cy="1102.9" r="253.6"/>
		<circle class="st6" cx="-126.9" cy="1265.7" r="253.6"/>
	</g>
	<g>
		<path class="st5" d="M2818.6,1399.9l59,15c0,0,77.6,90.4,76.6,109.6c-1,19.1,16.7-145.9,11.8-158.7c-4.9-12.8,41,0,41,0
			s13,146.4,11.1,170c-2,23.6,96.3-114.5,96.3-114.5l17.2,28.1c0,0-94.8,156.2-59.4,238.7c35.4,82.5,59.4,100.3,59.4,100.3l-77-9.4
			l-29.6,35.9l-57.3-35.9l-44.2,35.9l-35-52.7l-59.9,34c0,0,82.1-89.8,76.6-162.1C2900.2,1569.2,2869.6,1479.2,2818.6,1399.9z"/>
		<circle class="st6" cx="2818.3" cy="1075.8" r="253.6"/>
		<circle class="st6" cx="3073.2" cy="1222.3" r="253.6"/>
		<circle class="st6" cx="2663.7" cy="1360.6" r="253.6"/>
		<circle class="st6" cx="3257.6" cy="1197.9" r="253.6"/>
		<circle class="st6" cx="3124.8" cy="1360.6" r="253.6"/>
	</g>
	<g>
		<path class="st5" d="M1239.7,1353.5l42.1,10.7c0,0,55.3,64.5,54.6,78.1s11.9-104,8.4-113.2c-3.5-9.1,29.2,0,29.2,0
			s9.3,104.4,7.9,121.2s68.7-81.7,68.7-81.7l12.3,20c0,0-67.6,111.4-42.4,170.3s42.4,71.5,42.4,71.5l-54.9-6.7l-21.1,25.6
			l-40.8-25.6l-31.6,25.6l-25-37.6l-42.7,24.3c0,0,58.6-64,54.6-115.6C1297.9,1474.3,1276,1410.1,1239.7,1353.5z"/>
		<circle class="st6" cx="1239.5" cy="1122.4" r="180.8"/>
		<circle class="st6" cx="1421.3" cy="1226.8" r="180.8"/>
		<g>
			<path class="st5" d="M2304.1,1397.7l-46.6,11.9c0,0-61.3,71.4-60.5,86.5s-13.2-115.2-9.3-125.3c3.9-10.1-32.4,0-32.4,0
				s-10.3,115.6-8.7,134.2s-76-90.4-76-90.4l-13.6,22.2c0,0,74.9,123.4,46.9,188.5c-27.9,65.2-46.9,79.2-46.9,79.2l60.8-7.4
				l23.4,28.3l45.2-28.3l34.9,28.3l27.7-41.6l47.3,26.9c0,0-64.8-70.9-60.5-128C2239.6,1531.4,2263.8,1460.3,2304.1,1397.7z"/>
			<circle class="st6" cx="2304.3" cy="1141.8" r="200.2"/>
			
				<ellipse transform="matrix(0.7071 -0.7071 0.7071 0.7071 -354.8578 1825.2975)" class="st6" cx="2025.9" cy="1341" rx="200.2" ry="200.2"/>
			<circle class="st6" cx="2426.3" cy="1366.6" r="200.2"/>
			<circle class="st6" cx="1918.8" cy="1216.7" r="200.2"/>
			<circle class="st6" cx="2210.1" cy="1141.8" r="200.2"/>
		</g>
		<circle class="st6" cx="1129.2" cy="1325.5" r="180.8"/>
		<circle class="st6" cx="1552.8" cy="1209.4" r="180.8"/>
		<circle class="st6" cx="1458" cy="1325.5" r="180.8"/>
	</g>
	<g>
		<path class="st5" d="M867.5,1346.5l-43.9,11.2c0,0-57.7,67.2-57,81.4c0.7,14.2-12.4-108.4-8.8-117.9s-30.5,0-30.5,0
			s-9.7,108.8-8.2,126.3s-71.6-85.1-71.6-85.1l-12.8,20.9c0,0,70.5,116.1,44.2,177.4s-44.2,74.5-44.2,74.5l57.2-7l22,26.6l42.6-26.6
			l32.9,26.6l26-39.2l44.5,25.3c0,0-61-66.7-57-120.5C806.9,1472.3,829.6,1405.4,867.5,1346.5z"/>
		<circle class="st6" cx="867.7" cy="1105.6" r="188.4"/>
		<circle class="st6" cx="605.7" cy="1293.1" r="188.4"/>
		<circle class="st6" cx="982.6" cy="1317.2" r="188.4"/>
		<circle class="st6" cx="505" cy="1176.2" r="188.4"/>
		<circle class="st6" cx="779.1" cy="1105.6" r="188.4"/>
	</g>
	<g>
		<path class="st5" d="M-991.7,1570.8l59,15c0,0,77.6,90.4,76.6,109.6c-1,19.1,16.7-145.9,11.8-158.7c-4.9-12.8,41,0,41,0
			s13,146.4,11.1,170c-2,23.6,96.3-114.5,96.3-114.5l17.2,28.1c0,0-94.8,156.2-59.4,238.7c35.4,82.5,59.4,100.3,59.4,100.3l-77-9.4
			l-29.6,35.9l-57.3-35.9l-44.2,35.9l-35-52.7l-59.9,34c0,0,82.1-89.8,76.6-162.1C-910.1,1740.1-940.7,1650.1-991.7,1570.8z"/>
		<circle class="st7" cx="-1117.4" cy="1475.4" r="282.8"/>
		<circle class="st7" cx="-856.2" cy="1191.8" r="282.8"/>
		<circle class="st7" cx="-515" cy="1372.9" r="282.8"/>
		<circle class="st7" cx="-659.2" cy="1517.1" r="282.8"/>
	</g>
	<g>
		<path class="st5" d="M966.8,1450.5l39.1,10c0,0,51.4,59.9,50.8,72.6c-0.7,12.7,11.1-96.7,7.8-105.1c-3.3-8.5,27.2,0,27.2,0
			s8.6,97,7.3,112.6c-1.3,15.6,63.8-75.9,63.8-75.9l11.4,18.6c0,0-62.8,103.5-39.4,158.2s39.4,66.4,39.4,66.4l-51-6.2l-19.6,23.8
			l-37.9-23.8l-29.3,23.8l-23.2-34.9l-39.7,22.5c0,0,54.4-59.5,50.8-107.4C1020.8,1562.6,1000.6,1503,966.8,1450.5z"/>
		<circle class="st7" cx="883.5" cy="1387.3" r="187.3"/>
		<circle class="st7" cx="1056.5" cy="1199.4" r="187.3"/>
		<circle class="st7" cx="1282.6" cy="1319.4" r="187.3"/>
		<circle class="st7" cx="1187.1" cy="1414.9" r="187.3"/>
	</g>
	<g>
		<path class="st5" d="M358.8,1511.9l-49.7,12.7c0,0-65.3,76.1-64.5,92.2s-14.1-122.8-9.9-133.5c4.1-10.7-34.5,0-34.5,0
			s-11,123.2-9.3,143s-81-96.4-81-96.4l-14.5,23.6c0,0,79.8,131.4,50,200.9c-29.8,69.4-50,84.3-50,84.3l64.8-7.9l24.9,30.2
			l48.2-30.2l37.2,30.2l29.5-44.3l50.4,28.6c0,0-69.1-75.6-64.5-136.4C290.1,1654.3,315.8,1578.6,358.8,1511.9z"/>
		<circle class="st7" cx="482.7" cy="1431.6" r="237.9"/>
		<circle class="st7" cx="244.8" cy="1193" r="237.9"/>
		<circle class="st7" cx="53.5" cy="1322.5" r="237.9"/>
		<circle class="st7" cx="-28.7" cy="1477.7" r="237.9"/>
		<circle class="st7" cx="209" cy="1471.2" r="237.9"/>
	</g>
	<g>
		<path class="st5" d="M1815.4,1503.8l-41.9,10.7c0,0-55.1,64.2-54.4,77.8c0.7,13.6-11.9-103.6-8.4-112.7s-29.1,0-29.1,0
			s-9.3,104-7.9,120.7s-68.4-81.4-68.4-81.4l-12.2,19.9c0,0,67.3,111,42.2,169.6c-25.1,58.6-42.2,71.2-42.2,71.2l54.7-6.7l21,25.5
			l40.7-25.5l31.4,25.5l24.9-37.4l42.6,24.2c0,0-58.3-63.8-54.4-115.1C1757.4,1624.1,1779.1,1560.2,1815.4,1503.8z"/>
		
			<ellipse transform="matrix(0.7071 -0.7071 0.7071 0.7071 -453.1211 1778.2689)" class="st7" cx="1920" cy="1436.1" rx="200.9" ry="200.9"/>
		<circle class="st7" cx="1719.1" cy="1234.7" r="200.9"/>
		<circle class="st7" cx="1557.6" cy="1344" r="200.9"/>
		<circle class="st7" cx="1488.3" cy="1475" r="200.9"/>
		<circle class="st7" cx="1688.9" cy="1469.5" r="200.9"/>
	</g>
</g>
<polygon class="st8" points="1060.2,577.5 1017.4,735.4 1106,597.9 1096.9,761.2 1155,608.3 1180.1,769.9 1205.1,608.3 
	1263.2,761.2 1254.1,597.9 1342.8,735.4 1299.9,577.5 1415.2,693.5 1340.4,548 1343,549.7 1163.2,369.9 919.7,613.5 1019.7,548 
	944.9,693.5 "/>
<polygon class="st8" points="509,663.4 475.2,788 545.2,679.5 538,808.4 583.9,687.7 603.6,815.3 623.4,687.7 669.3,808.4 
	662.1,679.5 732.1,788 698.2,663.4 789.2,755 730.2,640.2 732.3,641.5 590.3,499.6 398.1,691.8 477,640.2 418,755 "/>
<g class="st3">
	<g class="st4">
		<defs>
			<rect id="SVGID_1_" x="3.7" y="-97.5" width="1915.9" height="1833.3"/>
		</defs>
		<clipPath id="SVGID_00000098187105388168678570000007354669040694640812_">
			<use xlink:href="#SVGID_1_"  style="overflow:visible;"/>
		</clipPath>
		<g style="clip-path:url(#SVGID_00000098187105388168678570000007354669040694640812_);">
			<g>
				<path class="st10" d="M257.4,1175.3l28.8,7.3c0,0,37.9,44.1,37.4,53.5c-0.5,9.3,8.2-71.2,5.8-77.5c-2.4-6.2,20,0,20,0
					s6.4,71.5,5.4,83s47-55.9,47-55.9l8.4,13.7c0,0-46.3,76.3-29,116.5c17.3,40.3,29,48.9,29,48.9l-37.6-4.6l-14.4,17.5l-28-17.5
					l-21.6,17.5l-17.1-25.7l-29.3,16.6c0,0,40.1-43.8,37.4-79.1C297.2,1258,282.3,1214,257.4,1175.3z"/>
				<circle class="st11" cx="257.3" cy="1017.1" r="123.8"/>
				<circle class="st11" cx="381.7" cy="1088.6" r="123.8"/>
				<circle class="st11" cx="181.8" cy="1156.1" r="123.8"/>
				<circle class="st11" cx="471.7" cy="1076.7" r="123.8"/>
				<circle class="st11" cx="406.9" cy="1156.1" r="123.8"/>
			</g>
			<g>
				<path class="st10" d="M1844.7,1221.7l28.8,7.3c0,0,37.9,44.1,37.4,53.5c-0.5,9.3,8.2-71.2,5.8-77.5c-2.4-6.2,20,0,20,0
					s6.4,71.5,5.4,83s47-55.9,47-55.9l8.4,13.7c0,0-46.3,76.3-29,116.5c17.3,40.3,29,48.9,29,48.9l-37.6-4.6l-14.4,17.5l-28-17.5
					l-21.6,17.5l-17.1-25.7l-29.3,16.6c0,0,40.1-43.8,37.4-79.1C1884.5,1304.3,1869.6,1260.4,1844.7,1221.7z"/>
				<circle class="st11" cx="1844.6" cy="1063.4" r="123.8"/>
				<circle class="st11" cx="1969" cy="1134.9" r="123.8"/>
				<circle class="st11" cx="1769.1" cy="1202.4" r="123.8"/>
				<circle class="st11" cx="2059" cy="1123" r="123.8"/>
				<circle class="st11" cx="1994.2" cy="1202.4" r="123.8"/>
			</g>
			<g>
				<path class="st10" d="M1073.9,1199l20.5,5.2c0,0,27,31.5,26.7,38.1c-0.3,6.7,5.8-50.8,4.1-55.2c-1.7-4.4,14.3,0,14.3,0
					s4.5,51,3.9,59.2c-0.7,8.2,33.5-39.9,33.5-39.9l6,9.8c0,0-33,54.4-20.7,83.1s20.7,34.9,20.7,34.9l-26.8-3.3l-10.3,12.5
					l-19.9-12.5l-15.4,12.5l-12.2-18.3l-20.9,11.8c0,0,28.6-31.3,26.7-56.4C1102.4,1257.9,1091.7,1226.6,1073.9,1199z"/>
				
					<ellipse transform="matrix(0.7071 -0.7071 0.7071 0.7071 -453.5506 1077.4319)" class="st11" cx="1073.8" cy="1086.2" rx="88.3" ry="88.3"/>
				<circle class="st11" cx="1162.6" cy="1137.2" r="88.3"/>
				<g>
					<path class="st10" d="M1593.5,1220.6l-22.8,5.8c0,0-29.9,34.8-29.5,42.2s-6.4-56.2-4.5-61.2s-15.8,0-15.8,0s-5,56.4-4.3,65.5
						s-37.1-44.1-37.1-44.1l-6.6,10.8c0,0,36.5,60.2,22.9,92s-22.9,38.6-22.9,38.6l29.7-3.6l11.4,13.8l22.1-13.8l17.1,13.8
						l13.5-20.3l23.1,13.1c0,0-31.6-34.6-29.5-62.5C1562.1,1285.8,1573.9,1251.1,1593.5,1220.6z"/>
					<circle class="st11" cx="1593.6" cy="1095.6" r="97.7"/>
					<circle class="st11" cx="1457.7" cy="1192.9" r="97.7"/>
					<circle class="st11" cx="1653.2" cy="1205.4" r="97.7"/>
					<circle class="st11" cx="1405.5" cy="1132.2" r="97.7"/>
					<circle class="st11" cx="1547.6" cy="1095.6" r="97.7"/>
				</g>
				
					<ellipse transform="matrix(0.7071 -0.7071 0.7071 0.7071 -539.3826 1068.4153)" class="st11" cx="1020" cy="1185.3" rx="88.3" ry="88.3"/>
				<circle class="st11" cx="1226.8" cy="1128.7" r="88.3"/>
				<circle class="st11" cx="1180.5" cy="1185.3" r="88.3"/>
			</g>
			<g>
				<path class="st10" d="M892.3,1195.6l-21.4,5.5c0,0-28.2,32.8-27.8,39.7c0.4,6.9-6.1-52.9-4.3-57.6c1.8-4.6-14.9,0-14.9,0
					s-4.7,53.1-4,61.7s-34.9-41.5-34.9-41.5l-6.2,10.2c0,0,34.4,56.7,21.6,86.6c-12.8,29.9-21.6,36.4-21.6,36.4l27.9-3.4l10.7,13
					l20.8-13l16.1,13L867,1327l21.7,12.3c0,0-29.8-32.6-27.8-58.8C862.7,1257,873.8,1224.3,892.3,1195.6z"/>
				<circle class="st11" cx="892.4" cy="1078" r="92"/>
				<circle class="st11" cx="764.5" cy="1169.5" r="92"/>
				<circle class="st11" cx="948.5" cy="1181.3" r="92"/>
				<circle class="st11" cx="715.3" cy="1112.4" r="92"/>
				<circle class="st11" cx="849.1" cy="1078" r="92"/>
			</g>
			<g>
				<path class="st10" d="M-15.3,1305.1l28.8,7.3c0,0,37.9,44.1,37.4,53.5s8.2-71.2,5.8-77.5c-2.4-6.2,20,0,20,0s6.4,71.5,5.4,83
					s47-55.9,47-55.9l8.4,13.7c0,0-46.3,76.3-29,116.5c17.3,40.3,29,48.9,29,48.9l-37.6-4.6l-14.4,17.5l-28-17.5l-21.6,17.5
					l-17.1-25.7l-29.3,16.6c0,0,40.1-43.8,37.4-79.1C24.5,1387.7,9.6,1343.8-15.3,1305.1z"/>
				<circle class="st12" cx="-76.6" cy="1258.5" r="138"/>
				<circle class="st12" cx="50.8" cy="1120.1" r="138"/>
				<circle class="st12" cx="217.4" cy="1208.4" r="138"/>
				<circle class="st12" cx="147" cy="1278.8" r="138"/>
			</g>
			<g>
				<path class="st10" d="M940.7,1246.3l19.1,4.9c0,0,25.1,29.2,24.8,35.4c-0.3,6.2,5.4-47.2,3.8-51.3c-1.6-4.1,13.3,0,13.3,0
					s4.2,47.3,3.6,55c-0.6,7.6,31.1-37,31.1-37l5.6,9.1c0,0-30.7,50.5-19.2,77.2c11.4,26.7,19.2,32.4,19.2,32.4l-24.9-3l-9.6,11.6
					L989,1369l-14.3,11.6l-11.3-17l-19.4,11c0,0,26.6-29,24.8-52.4C967.1,1301.1,957.2,1272,940.7,1246.3z"/>
				<circle class="st12" cx="900.1" cy="1215.5" r="91.4"/>
				<circle class="st12" cx="984.5" cy="1123.8" r="91.4"/>
				<circle class="st12" cx="1094.9" cy="1182.3" r="91.4"/>
				<circle class="st12" cx="1048.3" cy="1229" r="91.4"/>
			</g>
			<g>
				<path class="st10" d="M643.9,1276.3l-24.2,6.2c0,0-31.9,37.1-31.5,45s-6.9-59.9-4.8-65.2s-16.8,0-16.8,0s-5.4,60.1-4.5,69.8
					c0.8,9.7-39.5-47-39.5-47l-7.1,11.5c0,0,38.9,64.2,24.4,98c-14.5,33.9-24.4,41.2-24.4,41.2l31.6-3.9l12.1,14.7l23.5-14.7
					l18.2,14.7l14.4-21.6l24.6,14c0,0-33.7-36.9-31.5-66.6C610.4,1345.8,623,1308.9,643.9,1276.3z"/>
				<circle class="st12" cx="704.4" cy="1237.1" r="116.1"/>
				<circle class="st12" cx="588.3" cy="1120.7" r="116.1"/>
				<circle class="st12" cx="494.9" cy="1183.9" r="116.1"/>
				<circle class="st12" cx="454.8" cy="1259.6" r="116.1"/>
				<circle class="st12" cx="570.8" cy="1256.5" r="116.1"/>
			</g>
			<g>
				<path class="st10" d="M1355,1272.4l-20.5,5.2c0,0-26.9,31.3-26.6,38c0.3,6.6-5.8-50.6-4.1-55c1.7-4.4-14.2,0-14.2,0
					s-4.5,50.8-3.8,58.9c0.7,8.2-33.4-39.7-33.4-39.7l-6,9.7c0,0,32.9,54.2,20.6,82.8s-20.6,34.8-20.6,34.8l26.7-3.3l10.3,12.4
					l19.9-12.4l15.3,12.4l12.2-18.3l20.8,11.8c0,0-28.5-31.1-26.6-56.2C1326.7,1331.1,1337.3,1299.9,1355,1272.4z"/>
				<circle class="st12" cx="1406.1" cy="1239.3" r="98.1"/>
				<circle class="st12" cx="1308" cy="1141" r="98.1"/>
				<circle class="st12" cx="1229.2" cy="1194.3" r="98.1"/>
				<circle class="st12" cx="1195.3" cy="1258.3" r="98.1"/>
				<circle class="st12" cx="1293.3" cy="1255.6" r="98.1"/>
			</g>
		</g>
	</g>
</g>
</svg>
