<?xml version="1.0" encoding="utf-8"?>
<!-- Generator: Adobe Illustrator 27.6.1, SVG Export Plug-In . SVG Version: 6.00 Build 0)  -->
<svg version="1.1" id="レイヤー_1" xmlns="http://www.w3.org/2000/svg" xmlns:xlink="http://www.w3.org/1999/xlink" x="0px"
	 y="0px" viewBox="0 0 20 20" style="enable-background:new 0 0 20 20;" xml:space="preserve">
<style type="text/css">
	.st0{fill:#1D2C5B;}
	.st1{fill:#157E3B;}
	.st2{fill:#7C7A2C;}
	.st3{fill:#7A171C;}
	.st4{fill:#056A7B;}
	.st5{fill:#5B2273;}
</style>
<g>
	<path class="st0" d="M5.2,10.1H3.7C3.3,10.1,3,9.8,3,9.5V4.5c0-0.4,0.3-0.7,0.7-0.7h1.5c0.4,0,0.7,0.3,0.7,0.7v4.9
		C5.9,9.8,5.5,10.1,5.2,10.1z"/>
	<path class="st1" d="M12.3,14.1h-10c-0.7,0-1.3-0.6-1.3-1.3V8c0-0.7,0.6-1.3,1.3-1.3h10c0.7,0,1.3,0.6,1.3,1.3v4.8
		C13.7,13.5,13.1,14.1,12.3,14.1z"/>
	<rect x="10.6" y="4" class="st2" width="7.8" height="10.2"/>
	<path class="st3" d="M18.2,5h-7.3C10.2,5,9.8,4.5,9.8,4V3.7c0-0.6,0.5-1.1,1.1-1.1h7.3c0.6,0,1.1,0.5,1.1,1.1V4
		C19.2,4.5,18.7,5,18.2,5z"/>
	<circle class="st4" cx="5.9" cy="14.1" r="3"/>
	<circle class="st5" cx="13.4" cy="14.5" r="3"/>
</g>
<g>
</g>
<g>
</g>
<g>
</g>
<g>
</g>
<g>
</g>
<g>
</g>
</svg>
