<?xml version="1.0" encoding="utf-8"?>
<!-- Generator: Adobe Illustrator 27.6.1, SVG Export Plug-In . SVG Version: 6.00 Build 0)  -->
<svg version="1.1" id="レイヤー_1" xmlns="http://www.w3.org/2000/svg" xmlns:xlink="http://www.w3.org/1999/xlink" x="0px"
	 y="0px" viewBox="0 0 20 20" style="enable-background:new 0 0 20 20;" xml:space="preserve">
<style type="text/css">
	.st0{fill:#127E3B;}
	.st1{fill:#79171C;}
	.st2{fill:#7B7A2D;}
</style>
<path class="st0" d="M19,11.1H8.9c-0.4,0-0.7,0.3-0.7,0.7V16c0,0.4,0.3,0.7,0.7,0.7h2.2c0-1.6,1.3-2.9,2.9-2.9
	c1.6,0,2.9,1.3,2.9,2.9H19c0.4,0,0.7-0.3,0.7-0.7v-4.1C19.8,11.4,19.4,11.1,19,11.1z"/>
<path class="st1" d="M8.2,8.8l5.4-5.4c0.2-0.2,0.5-0.2,0.7,0l5.4,5.4c0.3,0.3,0.1,0.9-0.4,0.9l-10.7,0C8.1,9.6,7.9,9.1,8.2,8.8z"/>
<circle class="st2" cx="3.3" cy="13.6" r="3.1"/>
</svg>
